<?xml version="1.0" standalone="no"?>
<!DOCTYPE svg PUBLIC "-//W3C//DTD SVG 20010904//EN"
 "http://www.w3.org/TR/2001/REC-SVG-20010904/DTD/svg10.dtd">
<svg version="1.0" xmlns="http://www.w3.org/2000/svg"
 width="1023.000000pt" height="1018.000000pt" viewBox="0 0 1023.000000 1018.000000"
 preserveAspectRatio="xMidYMid meet">

<g transform="translate(0.000000,1018.000000) scale(0.100000,-0.100000)"
fill="#000000" stroke="none">
<path d="M5140 7344 c-143 -25 -333 -133 -470 -265 -62 -60 -157 -174 -175
-210 -9 -16 -19 -29 -24 -29 -5 0 -11 -8 -14 -17 -8 -24 -38 -72 -60 -96 -28
-29 -64 -14 -130 53 -45 47 -70 86 -116 182 -89 186 -150 225 -232 149 -17
-16 -69 -111 -69 -127 0 -4 -6 -15 -13 -23 -8 -9 -21 -45 -31 -81 -9 -36 -22
-78 -28 -95 -6 -16 -12 -48 -14 -70 -3 -22 -9 -69 -15 -105 -8 -52 -7 -88 6
-180 26 -181 36 -159 -85 -198 -58 -19 -114 -38 -125 -42 -142 -54 -201 -65
-360 -65 -146 0 -179 5 -275 40 -19 7 -55 18 -80 25 -25 7 -88 29 -140 48 -52
19 -120 37 -150 39 -47 4 -59 1 -82 -19 -48 -41 -61 -110 -34 -184 7 -22 17
-70 21 -108 4 -38 10 -77 15 -85 4 -9 20 -54 35 -101 37 -114 93 -234 143
-306 40 -58 61 -84 128 -156 45 -49 44 -64 -8 -72 -57 -9 -316 -96 -405 -137
-24 -10 -47 -19 -52 -19 -24 0 -378 -174 -470 -231 -34 -21 -65 -39 -68 -39
-16 0 -369 -252 -398 -285 -5 -6 -31 -28 -57 -48 -129 -103 -360 -354 -484
-527 -196 -273 -357 -593 -433 -860 -12 -41 -26 -89 -31 -106 -36 -111 39
-214 154 -214 22 0 74 7 116 15 41 8 109 19 150 25 41 7 111 18 155 26 124 21
499 46 595 39 111 -8 278 -25 310 -30 377 -67 621 -233 720 -490 22 -57 40
-136 40 -177 0 -51 31 -99 81 -127 60 -34 75 -31 249 51 183 87 371 123 585
112 97 -5 118 -8 215 -35 128 -34 152 -44 308 -122 56 -28 102 -55 102 -59 0
-4 6 -8 13 -8 43 -1 346 -260 482 -414 39 -43 79 -88 90 -100 39 -41 182 -232
238 -318 62 -95 87 -117 147 -128 72 -13 138 34 196 140 10 19 31 51 47 71 15
20 27 40 27 43 0 6 48 73 158 221 110 148 291 334 437 448 177 138 370 230
575 274 102 22 334 25 453 5 126 -20 294 -80 417 -150 8 -5 29 -17 45 -26 86
-49 117 -59 155 -47 20 6 53 26 74 44 41 35 44 45 62 247 3 36 10 69 15 75 5
5 9 17 9 27 0 23 60 148 72 148 4 0 8 6 8 14 0 22 123 129 190 164 71 39 205
90 270 104 108 22 356 47 480 48 167 0 477 -26 547 -46 29 -9 62 -14 75 -13
13 2 43 -2 68 -8 74 -19 213 -43 248 -43 87 0 155 73 154 166 -1 107 -74 406
-131 539 -77 178 -127 273 -214 406 -280 430 -744 812 -1342 1107 -82 40 -159
77 -170 82 -11 4 -36 15 -55 23 -19 8 -66 27 -105 42 -86 33 -95 37 -170 68
-33 13 -65 26 -72 28 -7 2 13 31 43 64 122 131 225 326 274 515 6 25 16 59 21
76 5 17 9 40 9 51 0 11 7 37 15 56 33 79 12 182 -42 206 -31 14 -104 14 -157
0 -43 -12 -55 -16 -121 -43 -52 -21 -260 -72 -304 -75 -18 -1 -41 -6 -51 -11
-24 -13 -131 -13 -164 0 -15 5 -41 11 -59 14 -38 4 -153 37 -217 61 -25 9 -76
27 -115 40 -118 38 -127 44 -122 79 3 17 14 93 23 168 16 119 17 147 5 210 -7
40 -14 86 -16 101 -4 28 -20 81 -36 122 -4 11 -15 43 -25 70 -10 28 -22 56
-28 64 -6 7 -15 23 -21 34 -15 31 -71 60 -99 53 -47 -12 -88 -59 -134 -154
-61 -124 -141 -213 -213 -236 -48 -16 -52 -16 -65 1 -7 10 -14 21 -14 25 0 6
-81 134 -97 153 -5 6 -22 28 -38 50 -134 179 -334 334 -504 389 -53 17 -193
29 -241 20z m233 -35 c77 -26 175 -78 247 -131 64 -48 205 -188 240 -238 13
-19 27 -37 30 -40 12 -9 110 -159 110 -167 0 -5 12 -21 26 -36 17 -19 32 -26
43 -22 9 4 30 11 48 16 57 17 147 121 204 236 68 140 121 179 185 136 44 -28
112 -198 141 -348 11 -61 7 -282 -7 -355 -20 -109 -19 -132 10 -141 14 -4 63
-21 110 -39 47 -17 108 -38 135 -47 28 -8 59 -19 70 -23 100 -39 292 -60 379
-42 28 6 78 16 111 22 33 6 74 15 90 20 58 16 170 51 190 59 55 23 97 31 151
31 51 0 64 -4 83 -24 31 -33 27 -111 -18 -291 -60 -243 -151 -423 -295 -580
-34 -37 -51 -63 -46 -70 5 -6 26 -16 47 -23 21 -8 47 -17 58 -22 11 -5 69 -27
130 -50 291 -112 669 -311 901 -476 177 -126 232 -170 368 -294 98 -89 227
-230 337 -368 17 -21 129 -191 155 -235 44 -76 117 -231 149 -317 9 -25 20
-54 25 -65 15 -39 49 -161 60 -220 7 -33 17 -75 22 -94 6 -18 11 -68 12 -111
1 -77 0 -80 -33 -114 -50 -52 -81 -59 -176 -40 -385 74 -587 98 -850 98 -447
1 -756 -91 -927 -273 -53 -57 -112 -156 -132 -222 -7 -23 -19 -111 -33 -234
-7 -69 -22 -97 -68 -125 -51 -32 -84 -26 -190 35 -171 100 -293 144 -495 181
-85 15 -302 19 -346 5 -16 -5 -56 -14 -89 -21 -160 -32 -374 -129 -525 -239
-255 -185 -521 -495 -749 -874 -28 -46 -89 -87 -130 -87 -57 0 -97 36 -177
158 -42 64 -95 139 -118 168 -22 28 -50 62 -61 76 -53 67 -141 162 -250 269
-274 270 -519 416 -827 495 -89 23 -124 27 -258 28 -151 0 -170 -2 -315 -41
-72 -20 -210 -75 -259 -104 -20 -11 -56 -27 -79 -34 -39 -12 -49 -11 -83 5
-67 30 -85 59 -95 147 -9 87 -34 175 -61 215 -10 14 -18 29 -18 33 0 3 -13 25
-29 48 -116 167 -310 281 -571 338 -135 30 -352 53 -485 53 -90 -1 -346 -20
-445 -34 -223 -30 -304 -43 -407 -64 -75 -15 -85 -15 -125 0 -24 8 -48 16 -55
16 -7 1 -11 4 -10 7 0 3 -7 21 -17 39 -25 47 -23 72 14 202 140 496 470 1007
883 1371 39 35 78 70 85 77 8 7 30 25 50 40 21 15 46 35 57 46 26 23 273 186
388 255 221 133 645 308 907 374 29 8 56 19 58 26 2 6 -28 45 -67 87 -137 147
-206 277 -280 529 -5 17 -15 62 -21 100 -7 39 -16 83 -21 99 -21 68 -7 144 30
173 26 20 102 15 176 -13 86 -32 179 -63 223 -75 17 -5 49 -14 70 -20 115 -33
279 -47 362 -30 30 7 78 17 105 22 28 6 91 24 140 40 50 16 106 34 125 40 41
12 64 21 103 40 25 11 28 18 23 44 -29 167 -37 263 -27 308 6 27 11 67 11 90
0 22 4 54 9 71 5 17 15 51 21 76 23 87 91 232 124 265 39 39 81 34 128 -15 21
-23 38 -46 38 -53 0 -7 20 -52 45 -101 40 -79 68 -120 132 -192 21 -25 91 -57
109 -50 7 3 32 35 57 73 56 86 140 197 198 260 99 110 286 235 422 283 76 27
228 27 310 -1z"/>
<path d="M5090 7231 c-220 -71 -393 -223 -583 -513 -42 -64 -81 -119 -86 -122
-6 -4 -42 6 -82 21 -119 46 -207 148 -289 336 -45 102 -53 108 -83 60 -86
-138 -141 -398 -118 -561 7 -48 16 -100 21 -117 5 -16 12 -51 15 -77 7 -44 5
-47 -21 -61 -52 -26 -392 -137 -489 -158 -79 -18 -243 -22 -320 -9 -97 16
-260 64 -420 124 -38 14 -83 26 -99 26 -28 0 -28 0 -22 -47 31 -242 99 -447
201 -605 51 -77 180 -217 222 -238 15 -8 42 -24 58 -36 17 -12 46 -30 65 -41
19 -10 62 -38 95 -62 74 -56 163 -94 285 -122 80 -19 125 -22 288 -22 131 0
192 -4 193 -11 3 -28 -4 -62 -22 -104 -52 -120 -403 -563 -523 -659 -39 -31
-78 -65 -86 -75 -19 -22 -95 -55 -146 -64 -31 -5 -51 -1 -85 16 -46 24 -146
87 -165 105 -6 5 -26 24 -45 40 -51 45 -96 106 -126 172 -52 112 -30 291 52
415 14 21 25 40 25 44 0 9 77 101 145 172 33 35 61 67 63 71 4 13 -42 29 -63
21 -47 -17 -92 -30 -106 -30 -19 0 -194 -55 -289 -90 -41 -16 -113 -43 -160
-60 -271 -102 -572 -269 -825 -459 -55 -41 -102 -77 -105 -80 -3 -4 -43 -40
-90 -81 -310 -275 -565 -618 -720 -971 -28 -62 -55 -123 -60 -134 -21 -42 -90
-267 -90 -290 0 -41 -8 -41 225 5 28 5 66 11 85 14 19 2 91 11 160 19 391 49
691 45 967 -13 340 -71 574 -225 716 -471 30 -53 77 -206 77 -253 0 -18 6 -40
13 -49 11 -17 20 -14 117 31 203 95 362 132 575 132 153 0 238 -11 369 -49
440 -128 899 -512 1261 -1052 31 -46 61 -84 67 -84 6 0 41 48 77 106 236 377
500 668 774 853 108 72 261 150 377 191 247 87 607 88 865 0 90 -30 265 -112
321 -150 20 -14 40 -25 44 -25 3 0 12 52 18 116 21 196 85 338 206 460 131
130 262 192 551 260 146 34 539 44 765 19 257 -28 387 -47 509 -74 115 -27
121 -23 109 56 -28 182 -123 474 -197 606 -10 18 -37 68 -61 111 -36 65 -176
267 -199 286 -3 3 -18 21 -33 40 -76 102 -318 325 -488 451 -104 77 -352 239
-366 239 -3 0 -18 9 -33 19 -36 26 -329 172 -411 206 -36 14 -78 32 -95 40
-16 7 -59 25 -95 38 -266 102 -294 109 -333 75 -15 -13 -27 -29 -27 -35 0 -6
21 -48 46 -93 166 -294 154 -555 -34 -750 -87 -89 -164 -140 -214 -140 -121 0
-286 159 -551 530 -37 52 -74 103 -82 113 -8 9 -15 19 -15 22 0 2 -13 24 -30
48 -30 44 -61 142 -53 163 3 8 62 11 201 10 158 -1 214 3 282 18 88 19 234 73
279 103 14 10 46 28 70 41 24 13 53 33 64 43 12 10 25 19 30 19 5 0 17 8 26
18 9 10 38 33 65 51 98 67 204 198 275 339 37 73 93 239 110 327 7 33 16 74
22 91 14 47 11 94 -7 101 -8 3 -77 -15 -152 -39 -142 -47 -186 -60 -262 -77
-25 -5 -66 -15 -92 -20 -78 -18 -230 -13 -326 10 -88 21 -411 127 -489 160
l-43 18 6 48 c3 26 8 55 11 63 26 67 40 330 23 410 -31 144 -92 304 -113 297
-7 -2 -35 -47 -63 -100 -92 -174 -156 -241 -275 -287 -43 -16 -87 -30 -98 -30
-14 0 -37 29 -85 108 -151 251 -290 394 -487 500 -117 63 -248 79 -359 43z
m-709 -1737 c20 -14 57 -46 81 -72 52 -55 200 -237 246 -302 18 -25 46 -65 64
-89 31 -44 31 -46 33 -170 2 -141 12 -199 42 -257 29 -56 64 -59 88 -7 10 21
20 60 23 86 3 27 11 51 18 54 7 2 28 -6 46 -20 40 -30 138 -67 176 -67 50 0
158 45 199 83 13 11 26 18 29 14 3 -3 12 -41 19 -83 22 -124 65 -148 109 -60
32 65 39 107 43 246 l4 135 71 95 c137 182 320 383 381 417 50 28 111 2 126
-55 20 -69 10 -250 -19 -372 -5 -19 -14 -57 -21 -85 -23 -97 -170 -377 -213
-407 -18 -13 -169 -57 -252 -74 -89 -18 -130 -15 -282 23 -83 21 -106 30 -114
48 -11 24 -57 55 -83 55 -25 0 -72 -30 -85 -55 -17 -31 -187 -70 -305 -69 -73
0 -109 7 -190 33 -55 18 -111 36 -125 40 -14 4 -41 30 -62 62 -43 61 -138 249
-138 271 0 8 -4 18 -8 24 -5 5 -14 36 -21 69 -7 33 -17 73 -22 90 -5 16 -12
97 -16 180 -7 171 2 216 45 240 33 18 65 12 113 -21z m264 -1222 c28 -8 51
-17 53 -18 4 -3 -27 -96 -38 -114 -7 -12 -13 -12 -27 -4 -22 14 -61 87 -69
133 -7 31 -5 34 12 27 10 -4 42 -15 69 -24z m1195 -29 c0 -14 -11 -46 -25 -69
-35 -60 -75 -79 -75 -37 0 8 -9 32 -19 54 l-20 40 27 11 c30 12 80 25 100 27
7 1 12 -10 12 -26z m-1076 -18 c16 -12 17 -18 8 -27 -15 -15 -45 0 -50 26 -4
20 16 20 42 1z m914 -22 c-4 -22 -48 -31 -48 -10 0 19 10 27 32 27 13 0 18 -6
16 -17z"/>
<path d="M3053 4988 c-170 -163 -249 -323 -229 -461 15 -101 133 -222 297
-307 56 -28 76 -24 149 30 80 60 134 114 214 211 215 262 343 437 329 450 -5
4 -57 10 -118 13 -236 13 -361 39 -505 105 -25 11 -51 21 -58 21 -8 0 -43 -28
-79 -62z m140 21 c125 -61 277 -93 505 -106 50 -3 92 -8 92 -11 0 -4 -18 -32
-40 -62 -22 -30 -51 -71 -64 -90 -13 -19 -32 -45 -42 -57 -11 -12 -37 -45 -59
-73 -146 -190 -245 -298 -301 -328 -13 -7 -24 -16 -24 -20 0 -5 -18 -18 -40
-31 l-39 -22 -50 26 c-169 85 -266 185 -291 298 -25 108 46 257 199 419 42 44
82 78 93 78 10 0 38 -9 61 -21z"/>
<path d="M7225 5000 c-86 -40 -121 -54 -155 -61 -19 -4 -66 -15 -105 -23 -47
-11 -120 -16 -223 -16 -123 0 -154 -3 -158 -14 -7 -18 42 -92 222 -332 146
-195 290 -348 339 -360 18 -5 37 1 68 21 68 44 172 158 202 222 24 51 27 70
27 158 0 82 -5 113 -27 173 -39 111 -120 253 -142 251 -5 0 -26 -9 -48 -19z
m84 -47 c17 -25 31 -51 31 -56 0 -6 6 -18 14 -26 7 -9 26 -52 42 -96 25 -70
29 -93 28 -185 0 -93 -4 -111 -27 -155 -31 -60 -137 -174 -191 -204 -26 -14
-48 -20 -63 -16 -30 7 -162 133 -211 200 -20 28 -44 59 -54 70 -18 20 -115
149 -156 207 -13 18 -47 67 -77 108 l-54 75 172 6 c177 6 253 15 263 30 3 5
18 9 35 9 16 0 37 4 47 9 9 5 31 14 47 21 17 6 46 20 65 30 51 26 55 25 89
-27z"/>
<path d="M310 10 c0 -7 1660 -10 4961 -10 3304 0 4958 3 4954 10 -9 14 -9915
14 -9915 0z"/>
</g>
</svg>
